<svg xmlns="http://www.w3.org/2000/svg" width="720" height="400" viewBox="0 0 720 400">
  <defs>
    <linearGradient id="bg" x1="0" y1="0" x2="1" y2="1">
      <stop offset="0" stop-color="#0ea5a4" />
      <stop offset="1" stop-color="#1e3a8a" />
    </linearGradient>
    <filter id="shadow" x="-10%" y="-10%" width="120%" height="120%">
      <feDropShadow dx="0" dy="8" stdDeviation="8" flood-color="#0b1b3b" flood-opacity="0.25"/>
    </filter>
  </defs>
  <rect x="12" y="12" width="696" height="376" rx="12" fill="url(#bg)" filter="url(#shadow)" />
  <g transform="translate(30,200)" stroke="#e6fdff" stroke-width="4" fill="none" opacity="0.9">
    <path d="M0 0 L90 0 L110 -40 L130 30 L150 -20 L170 0 L220 0 L240 -25 L260 20 L280 -40 L300 0 L370 0 L390 -30 L410 40 L430 -35 L450 0 L520 0 L540 -25 L560 30 L580 -40 L600 0 L690 0" />
  </g>
  <g fill="#c8f9f6" opacity="0.25">
    <circle cx="180" cy="80" r="6"/>
    <circle cx="520" cy="70" r="8"/>
    <circle cx="610" cy="120" r="5"/>
    <circle cx="130" cy="160" r="4"/>
    <circle cx="360" cy="90" r="7"/>
  </g>
</svg>