<svg width="256" height="256" viewBox="0 0 256 256" xmlns="http://www.w3.org/2000/svg">
  <defs>
    <linearGradient id="g" x1="0" y1="0" x2="1" y2="1">
      <stop offset="0" stop-color="#14b8a6"/>
      <stop offset="1" stop-color="#1e3a8a"/>
    </linearGradient>
  </defs>
  <rect rx="52" ry="52" x="12" y="12" width="232" height="232" fill="url(#g)"/>
  <g transform="translate(28,28)">
    <path d="M100 32c-14 0-25 6-32 16-7-10-18-16-32-16-23 0-42 19-42 42 0 44 58 78 74 88 4 2 8 2 12 0 16-10 74-44 74-88 0-23-19-42-42-42z" fill="#ffffff" opacity="0.9"/>
    <path d="M44 88h28l8-20 16 44 12-24h28" stroke="#0f172a" stroke-width="10" stroke-linecap="round" stroke-linejoin="round" fill="none"/>
  </g>
</svg>